# xmcd CD database file
#
# Track frame offsets:
#	150
#	10705
#	30404
#	45418
#	58116
#	70687
#	84287
#	100976
#	123930
#	136314
#	151275
#	169094
#	184296
#	200423
#	212487
#
# Disc length: 3059 seconds
#
# Revision: 0
# Processed by: cddbd v1.5.2PL0 Copyright (c) Steve Scherf et al.
# Submitted via: CDex 1.51
#
DISCID=bc0bf10f
DTITLE=Senior Dixieland Praha - My Bucket Got A Hole In It
DYEAR=1900
DGENRE=Jazz
TTITLE0=I Used To Love You
TTITLE1=My Bucket Got A Hole In It
TTITLE2=Basin Street Blues
TTITLE3=Wild Cat Blues
TTITLE4=Down By The Riverside
TTITLE5=Whinin' Boy Blues
TTITLE6=Struttin' With Some Barbecue
TTITLE7=Blueberry Hill
TTITLE8=Sweet Georgia Brown
TTITLE9=Honeysuckle Rose
TTITLE10=On The Sunny Side Of The Street
TTITLE11=Back Home Again In Indiana
TTITLE12=Sugar
TTITLE13=You Look Good To Me
TTITLE14=I Can't Give You Anything But Love
EXTD=
EXTT0=
EXTT1=
EXTT2=
EXTT3=
EXTT4=
EXTT5=
EXTT6=
EXTT7=
EXTT8=
EXTT9=
EXTT10=
EXTT11=
EXTT12=
EXTT13=
EXTT14=
PLAYORDER=
